<svg clip-rule="evenodd" fill-rule="evenodd" stroke-linejoin="round" stroke-miterlimit="2" viewBox="0 0 560 400" xmlns="http://www.w3.org/2000/svg"><g fill="#09f" fill-rule="nonzero" transform="matrix(.328448 0 0 .328448 100 134.48)"><path d="m8.549 8.542h1078.961v381.872h-1078.961zm-8.549 390.425h1096.06v-398.967h-1096.06zm29.915-188.527h1036.215v158.604h-1036.215zm913.587-118.333 61.788-64.154h50.67l-81.11 78.089 87.44 88.732h-48.84l-69.948-72.756v72.756h-34.08v-166.821h34.08zm-96.332-64.157h34.061v166.813h-34.061zm-172.018.003h34.67l44.318 133.765 45.536-133.765h35.271l-57.283 166.81h-47.282z"/><path d="m567.001 55.495v110.865l39.496-.061s9.952.303 18.992-6.342c7.072-5.193 13.569-16.902 14.774-27.779 1.195-10.87 2.82-48.106-9.218-63.704-10.371-13.429-25.75-12.979-29.065-12.979zm37.024-27.349c22.02.597 31.359 4.524 39.806 9.959 8.429 5.439 31.718 20.406 31.718 69.627 0 49.209-14.479 64.01-28.955 75.779-14.457 11.777-47.327 11.475-47.327 11.475l-66.323-.223v-166.81s49.077-.412 71.081.193m-242.785 166.621h32.984v-134.582l69.282 134.582h41.915v-166.814h-33.471v120.979l-60.605-120.979h-50.105zm-93.642-140.092-25.387 73.028h50.347zm82.813 140.092h-34.805l-13.754-39.239h-69.131l-13.168 39.239h-35.898l57.728-166.821h52.324zm-205.723-114.433h35.879s.907-22.787-8.742-35.671c-9.649-12.892-25.622-17.386-39.198-19.488-13.561-2.097-57.07-5.998-79.835 11.396-20.81 15.889-17.548 38.366-17.548 38.071 0-.302-1.232 29.163 24.416 39.572 14.778 5.998 43.721 7.797 43.721 7.797s22.908 2.094 29.847 4.788c6.928 2.699 12.968 7.794 12.968 17.7 0 9.887-2.714 16.773-8.141 20.98-5.435 4.195-10.851 6.894-26.532 6.894-15.686 0-26.234-5.692-29.863-8.995-3.609-3.292-8.738-10.787-9.04-17.685-.303-6.894-.303-10.794-.303-10.794h-37.678s-2.112 21.286 9.045 37.172c11.161 15.896 28.354 20.39 37.085 22.484 8.749 2.098 20.802 3.005 30.761 3.005 9.944 0 31.049-1.202 48.242-12.295 17.178-11.093 22.004-25.179 22.004-42.875 0-17.681-5.128-25.773-12.963-32.372-7.847-6.595-20.198-10.193-33.767-12.287-13.572-2.101-19.604-1.5-32.266-2.997-12.657-1.497-23.516-2.4-28.036-11.392-4.524-8.995-4.524-19.782 4.52-28.18 9.052-8.394 24.722-7.793 28.642-7.793 3.926 0 20.81 1.202 27.446 8.394 6.622 7.193 8.731 11.384 9.336 24.571"/></g></svg>